<?xml version="1.0" encoding="iso-8859-1"?>
<!-- Generator: Adobe Illustrator 19.0.0, SVG Export Plug-In . SVG Version: 6.00 Build 0)  -->
<svg version="1.1" id="Layer_1" xmlns="http://www.w3.org/2000/svg" xmlns:xlink="http://www.w3.org/1999/xlink" x="0px" y="0px"
	 viewBox="0 0 512 512" style="enable-background:new 0 0 512 512;" xml:space="preserve">
<g>
	<g>
		<path d="M258.188,130.479c-2.581-3.552-7.554-4.338-11.105-1.753l-56.666,41.212c-0.718-0.213-1.475-0.331-2.261-0.331h-46.642
			c-0.38,0-0.749,0.036-1.115,0.087l-1.33-1.552c-2.859-3.335-7.878-3.72-11.21-0.861c-3.334,2.858-3.719,7.877-0.861,11.21
			l6.565,7.66v38.047c0,4.391,3.56,7.95,7.95,7.95h46.642c4.391,0,7.95-3.56,7.95-7.95v-38.738l60.329-43.875
			C259.986,139.002,260.77,134.031,258.188,130.479z M169.01,185.507l-9.273,6.744l-5.78-6.744H169.01z M180.207,216.248h-30.741
			v-11.546l2.973,3.47c1.566,1.826,3.792,2.777,6.041,2.777c1.626,0,3.265-0.497,4.672-1.52l17.055-12.405V216.248z"/>
	</g>
</g>
<g>
	<g>
		<path d="M258.188,219.523c-2.581-3.552-7.554-4.338-11.105-1.753l-56.666,41.212c-0.718-0.213-1.475-0.331-2.261-0.331h-46.642
			c-0.38,0-0.749,0.036-1.115,0.087l-1.33-1.552c-2.859-3.334-7.878-3.72-11.21-0.861c-3.334,2.858-3.719,7.877-0.861,11.21
			l6.565,7.66v38.047c0,4.391,3.56,7.95,7.95,7.95h46.642c4.391,0,7.95-3.56,7.95-7.95v-38.738l60.329-43.875
			C259.986,228.046,260.77,223.074,258.188,219.523z M169.01,274.551l-9.273,6.744l-5.78-6.744H169.01z M180.207,305.292h-30.741
			v-11.546l2.973,3.47c1.566,1.826,3.792,2.777,6.041,2.777c1.626,0,3.265-0.497,4.672-1.52l17.055-12.405V305.292z"/>
	</g>
</g>
<g>
	<g>
		<path d="M258.188,308.566c-2.581-3.552-7.554-4.337-11.105-1.753l-56.666,41.212c-0.718-0.213-1.475-0.331-2.261-0.331h-46.642
			c-0.38,0-0.749,0.036-1.115,0.087l-1.33-1.552c-2.859-3.335-7.878-3.72-11.21-0.861c-3.334,2.858-3.719,7.877-0.861,11.21
			l6.565,7.66v38.047c0,4.391,3.56,7.95,7.95,7.95h46.642c4.391,0,7.95-3.56,7.95-7.95v-38.738l60.329-43.875
			C259.986,317.089,260.77,312.117,258.188,308.566z M169.01,363.594l-9.273,6.744l-5.78-6.744H169.01z M180.207,394.335h-30.741
			v-11.546l2.973,3.47c1.566,1.826,3.792,2.777,6.041,2.777c1.626,0,3.265-0.497,4.672-1.52l17.055-12.405V394.335z"/>
	</g>
</g>
<g>
	<g>
		<path d="M438.327,0h-43.991c-4.391,0-7.95,3.56-7.95,7.95s3.56,7.95,7.95,7.95h36.04v480.199H155.296
			c-4.391,0-7.95,3.56-7.95,7.95s3.56,7.95,7.95,7.95h283.031c4.391,0,7.95-3.56,7.95-7.95V7.95C446.277,3.56,442.718,0,438.327,0z"
			/>
	</g>
</g>
<g>
	<g>
		<path d="M355.644,0H73.673c-4.391,0-7.95,3.56-7.95,7.95V504.05c0,4.391,3.56,7.95,7.95,7.95h44.006c4.391,0,7.95-3.56,7.95-7.95
			s-3.56-7.95-7.95-7.95H81.623V15.901h274.021c4.391,0,7.95-3.56,7.95-7.95S360.035,0,355.644,0z"/>
	</g>
</g>
<g>
	<g>
		<path d="M370.484,195.048h-84.803c-4.391,0-7.95,3.56-7.95,7.95s3.56,7.95,7.95,7.95h84.803c4.391,0,7.95-3.56,7.95-7.95
			S374.875,195.048,370.484,195.048z"/>
	</g>
</g>
<g>
	<g>
		<path d="M370.484,284.091h-84.803c-4.391,0-7.95,3.56-7.95,7.95c0,4.391,3.56,7.95,7.95,7.95h84.803c4.391,0,7.95-3.56,7.95-7.95
			C378.435,287.651,374.875,284.091,370.484,284.091z"/>
	</g>
</g>
<g>
	<g>
		<path d="M370.484,373.135h-83.743c-4.391,0-7.95,3.56-7.95,7.95s3.56,7.95,7.95,7.95h83.743c4.391,0,7.95-3.56,7.95-7.95
			S374.875,373.135,370.484,373.135z"/>
	</g>
</g>
<g>
	<g>
		<path d="M408.646,59.362h-76.853V41.872c0-4.391-3.56-7.95-7.95-7.95h-37.794c-7.865-8.128-18.613-12.721-30.049-12.721
			s-22.185,4.592-30.049,12.721h-37.794c-4.391,0-7.95,3.56-7.95,7.95v17.491h-76.853c-4.391,0-7.95,3.56-7.95,7.95v394.335
			c0,4.391,3.56,7.95,7.95,7.95h305.292c4.391,0,7.95-3.56,7.95-7.95V67.313C416.596,62.922,413.037,59.362,408.646,59.362z
			 M196.108,67.313V49.822h33.423c2.413,0,4.694-1.095,6.203-2.978c4.963-6.192,12.351-9.743,20.266-9.743
			s15.303,3.551,20.267,9.743c1.508,1.882,3.791,2.978,6.203,2.978h33.422v17.491v21.731H196.108V67.313z M400.696,453.698H111.304
			V75.263h68.903v21.731c0,4.391,3.56,7.95,7.95,7.95h135.685c4.391,0,7.95-3.56,7.95-7.95V75.263h68.903V453.698z"/>
	</g>
</g>
<g>
</g>
<g>
</g>
<g>
</g>
<g>
</g>
<g>
</g>
<g>
</g>
<g>
</g>
<g>
</g>
<g>
</g>
<g>
</g>
<g>
</g>
<g>
</g>
<g>
</g>
<g>
</g>
<g>
</g>
</svg>
